<svg xmlns="http://www.w3.org/2000/svg" version="1.1" xmlns:xlink="http://www.w3.org/1999/xlink" xmlns:svgjs="http://svgjs.dev/svgjs" width="1500" height="356" viewBox="0 0 1500 356"><g transform="matrix(1,0,0,1,-0.9090909090909918,-0.6378782009763029)"><svg viewBox="0 0 396 94" data-background-color="#ffffff" preserveAspectRatio="xMidYMid meet" height="356" width="1500" xmlns="http://www.w3.org/2000/svg" xmlns:xlink="http://www.w3.org/1999/xlink"><g id="tight-bounds" transform="matrix(1,0,0,1,0.2400000000000091,0.1684285137409347)"><svg viewBox="0 0 395.52 93.66313986238326" height="93.66313986238326" width="395.52"><g><svg viewBox="0 0 551.4248883913086 130.58299566392148" height="93.66313986238326" width="395.52"><g transform="matrix(1,0,0,1,155.9048883913086,38.476094394733835)"><svg viewBox="0 0 395.52000000000004 53.63080687445382" height="53.63080687445382" width="395.52000000000004"><g id="textblocktransform"><svg viewBox="0 0 395.52000000000004 53.63080687445382" height="53.63080687445382" width="395.52000000000004" id="textblock"><g><svg viewBox="0 0 395.52000000000004 53.63080687445382" height="53.63080687445382" width="395.52000000000004"><g transform="matrix(1,0,0,1,0,0)"><svg width="395.52000000000004" viewBox="-0.3 -36.15 343.27000000000004 46.55" height="53.63080687445382" data-palette-color="#332885"><path d="M12.65-34.75L19.5-34.75 29.45-5.9Q31.55-5.15 32.4-4.15L32.4-4.15 31.9 0 20.2 0 19.7-4.15Q20.3-4.95 22.1-5.65L22.1-5.65 20.75-9.85 10.75-9.85 9.5-5.8Q11.25-5.1 12.1-4.15L12.1-4.15 11.6 0 0.2 0-0.3-4.15Q0.6-5.3 3.05-6.05L3.05-6.05 12.65-34.75ZM16.05-27.75L15.35-27.75Q15.35-24.7 14.1-20.65L14.1-20.65 12.15-14.45 19.3-14.45 17.4-20.55Q16.25-24.05 16.1-26.9L16.1-26.9 16.05-27.75ZM45.05 5.3L45.05 5.3Q49.5 5.3 49.5-0.05L49.5-0.05 49.5-2.25Q47.05-0.75 43.35-0.75L43.35-0.75Q38.65-0.75 36.12-3.5 33.6-6.25 33.6-12.65L33.6-12.65Q33.6-25.4 45.3-25.4L45.3-25.4Q48.3-25.4 50.9-24.1L50.9-24.1Q51.4-25 52.4-25L52.4-25 56.5-25 56.5-0.4Q56.5 5.1 53.77 7.75 51.05 10.4 45.35 10.4L45.35 10.4Q42.35 10.4 39.15 9.7 35.95 9 34.3 7.95L34.3 7.95Q34.25 7.5 34.25 7.05L34.25 7.05Q34.25 4.3 35.55 1.75L35.55 1.75 39.95 1.75Q40.5 2.8 40.75 4.55L40.75 4.55Q42.65 5.3 45.05 5.3ZM40.5-12.95Q40.5-9.2 41.52-7.7 42.55-6.2 45.02-6.2 47.5-6.2 49.5-7.6L49.5-7.6 49.5-19.45Q47.5-20.3 45.15-20.3L45.15-20.3Q40.5-20.3 40.5-12.95L40.5-12.95ZM72.3 0.4L72.3 0.4Q66.3 0.4 63.27-2.8 60.25-6 60.25-12.1L60.25-12.1Q60.25-15.8 61.3-18.48 62.35-21.15 64.15-22.6L64.15-22.6Q67.65-25.4 72.3-25.4 76.95-25.4 79.42-23.03 81.9-20.65 81.9-14.5L81.9-14.5Q81.9-10.9 78.34-10.9L78.34-10.9 67.5-10.9Q67.7-7.75 69.12-6.45 70.55-5.15 73.65-5.15L73.65-5.15Q75.34-5.15 76.9-5.55 78.45-5.95 79.15-6.35L79.15-6.35 79.84-6.75 81.34-2.75Q81.05-2.4 80.47-1.88 79.9-1.35 77.57-0.48 75.25 0.4 72.3 0.4ZM67.55-15.05L75.45-15.35Q75.55-16.05 75.55-17.05 75.55-18.05 74.75-19.18 73.95-20.3 71.97-20.3 70-20.3 68.95-19.1 67.9-17.9 67.55-15.05L67.55-15.05ZM84.44-21.15L84.94-25Q87.69-25.6 89.89-25.6 92.09-25.6 93.54-25.5L93.54-25.5 93.54-23Q94.79-24.05 96.87-24.73 98.94-25.4 100.84-25.4L100.84-25.4Q105.74-25.4 107.72-23.1 109.69-20.8 109.69-15.15L109.69-15.15 109.69-5.55Q111.64-4.8 112.44-3.85L112.44-3.85 111.94 0 100.44 0 99.94-3.85Q100.64-4.8 102.69-5.55L102.69-5.55 102.69-15.45Q102.69-18.15 101.82-19.07 100.94-20 98.69-20 96.44-20 94.19-18.4L94.19-18.4 94.19-5.55Q96.14-4.8 96.94-3.85L96.94-3.85 96.44 0 84.94 0 84.44-3.85Q85.14-4.8 87.19-5.55L87.19-5.55 87.19-19.45Q85.44-20.05 84.44-21.15L84.44-21.15ZM119.64-31.3L123.29-31.3 123.29-25 130.44-25 130.44-20.8 123.29-20.8 123.29-8.15Q123.29-6.55 123.74-5.83 124.19-5.1 125.89-5.1 127.59-5.1 129.54-5.85L129.54-5.85 131.04-1.95Q127.19 0 123.17 0 119.14 0 117.72-1.73 116.29-3.45 116.29-6.75L116.29-6.75 116.29-20.8 114.04-20.8 113.49-23.85Q114.29-24.8 116.79-25.75L116.79-25.75Q117.39-29.85 119.64-31.3L119.64-31.3ZM154.04-5.8L154.04-15.8 143.04-15.8 143.04-5.8Q145.04-5 145.79-4.15L145.79-4.15 145.29 0 133.59 0 133.09-4.15Q133.74-5 135.84-5.8L135.84-5.8 135.84-28.65Q133.79-29.4 133.09-30.35L133.09-30.35 133.59-34.5 145.29-34.5 145.79-30.35Q144.99-29.4 143.04-28.65L143.04-28.65 143.04-20.8 154.04-20.8 154.04-28.65Q151.99-29.4 151.29-30.35L151.29-30.35 151.79-34.5 163.49-34.5 163.99-30.35Q163.19-29.4 161.24-28.65L161.24-28.65 161.24-5.8Q163.24-5 163.99-4.15L163.99-4.15 163.49 0 151.79 0 151.29-4.15Q151.94-5 154.04-5.8L154.04-5.8ZM167.89-21.3L167.89-21.3Q167.89-22.05 167.94-22.9L167.94-22.9Q172.59-25.4 177.94-25.4 183.28-25.4 185.61-23.38 187.94-21.35 187.94-16.65L187.94-16.65 187.94-6Q189.69-5.65 190.69-5.15L190.69-5.15 190.69-0.8Q188.14 0.4 183.39 0.4L183.39 0.4Q182.89-0.9 182.53-2.75L182.53-2.75Q180.39 0.4 174.74 0.4L174.74 0.4Q171.39 0.4 169.01-1.55 166.64-3.5 166.64-6.85 166.64-10.2 168.86-12.13 171.09-14.05 175.49-14.05L175.49-14.05 180.94-14.05 180.94-16.45Q180.94-20.35 176.78-20.35L176.78-20.35Q175.24-20.35 174.24-20.05L174.24-20.05Q174.14-17.95 173.64-16.8L173.64-16.8 168.74-16.8Q167.89-18.55 167.89-21.3ZM176.89-4.7L176.89-4.7Q179.44-4.7 180.94-6.2L180.94-6.2 180.94-10.3 177.44-10.3Q173.84-10.3 173.84-7.55L173.84-7.55Q173.84-6.3 174.61-5.5 175.39-4.7 176.89-4.7ZM207.48-18.85L207.48-18.85Q203.68-18.85 202.23-17.4L202.23-17.4 202.23-5.95Q206.28-5.2 207.78-3.85L207.78-3.85 207.28 0 192.98 0 192.48-3.85Q193.18-4.8 195.23-5.55L195.23-5.55 195.23-19.45Q193.48-20.05 192.48-21.15L192.48-21.15 192.98-25Q195.73-25.6 197.93-25.6 200.13-25.6 201.58-25.5L201.58-25.5 201.58-22.35Q202.73-23.7 204.53-24.58 206.33-25.45 207.81-25.45 209.28-25.45 209.83-25.2L209.83-25.2 209.68-18.7Q208.68-18.85 207.48-18.85ZM210.33-31.65L210.83-35.5Q213.63-36.15 216.03-36.15 218.43-36.15 220.08-36L220.08-36 220.08-23.5Q221.13-24.25 222.88-24.83 224.63-25.4 226.23-25.4L226.23-25.4Q231.68-25.4 233.88-22.6 236.08-19.8 236.08-13.05L236.08-13.05Q236.08-9.3 235.06-6.58 234.03-3.85 232.28-2.4L232.28-2.4Q228.98 0.4 224.48 0.4L224.48 0.4Q221.08 0.4 217.78-1.3L217.78-1.3Q216.83 0 215.58 0L215.58 0 213.08 0 213.08-29.95Q211.33-30.55 210.33-31.65L210.33-31.65ZM224.08-4.7L224.08-4.7Q228.88-4.7 228.88-12.75L228.88-12.75Q228.88-17 228.06-18.53 227.23-20.05 225.18-20.05L225.18-20.05Q222.08-20.05 220.08-18.4L220.08-18.4 220.08-5.55Q222.23-4.7 224.08-4.7ZM250.3 0.4Q244.38 0.4 241.53-2.75 238.68-5.9 238.68-12.28 238.68-18.65 241.85-22.03 245.03-25.4 250.98-25.4 256.93-25.4 259.8-22.4 262.68-19.4 262.68-13.03 262.68-6.65 259.45-3.13 256.23 0.4 250.3 0.4ZM245.88-12.7L245.88-12.7Q245.88-4.7 250.68-4.7L250.68-4.7Q253.13-4.7 254.3-6.53 255.48-8.35 255.48-12.5L255.48-12.5Q255.48-20.3 250.58-20.3L250.58-20.3Q248.18-20.3 247.03-18.57 245.88-16.85 245.88-12.7ZM280.23-18.85L280.23-18.85Q276.43-18.85 274.98-17.4L274.98-17.4 274.98-5.95Q279.03-5.2 280.53-3.85L280.53-3.85 280.03 0 265.73 0 265.23-3.85Q265.93-4.8 267.98-5.55L267.98-5.55 267.98-19.45Q266.23-20.05 265.23-21.15L265.23-21.15 265.73-25Q268.48-25.6 270.68-25.6 272.88-25.6 274.32-25.5L274.32-25.5 274.32-22.35Q275.48-23.7 277.28-24.58 279.07-25.45 280.55-25.45 282.03-25.45 282.57-25.2L282.57-25.2 282.43-18.7Q281.43-18.85 280.23-18.85ZM292.97-18.85L292.97-18.85 292.97-5.7Q294.82-5 295.72-3.85L295.72-3.85 295.22 0 285.42 0 284.92-3.85Q285.82-5 287.67-5.7L287.67-5.7 287.67-28.8Q285.62-29.55 284.82-30.65L284.82-30.65 285.32-34.5 295.62-34.5 305.57-15.1Q306.67-13 307.72-9.5L307.72-9.5 308.07-8.3 308.62-8.5Q307.92-12.85 307.92-15.8L307.92-15.8 307.92-28.75Q306.12-29.45 305.17-30.65L305.17-30.65 305.67-34.5 315.47-34.5 315.97-30.65Q315.02-29.45 313.22-28.75L313.22-28.75 313.22 0 305.37 0 295.32-19.55Q294.22-21.65 293.17-25.2L293.17-25.2 292.82-26.35 292.27-26.15Q292.97-21.8 292.97-18.85ZM334.12-29.05L334.12-29.05Q332.42-29.5 330.57-29.5 328.72-29.5 327.6-28.58 326.47-27.65 326.47-25.98 326.47-24.3 327.32-23.35 328.17-22.4 330.67-21.7L330.67-21.7 335.12-20.4Q338.72-19.35 340.85-17.13 342.97-14.9 342.97-10.6L342.97-10.6Q342.97-5.5 339.3-2.55 335.62 0.4 330.17 0.4L330.17 0.4Q327.17 0.4 324-0.38 320.82-1.15 318.72-2.55L318.72-2.55Q318.72-2.85 318.72-3.7 318.72-4.55 319.07-6.6 319.42-8.65 320.07-9.95L320.07-9.95 324.82-9.95Q325.62-8.4 325.77-5.8L325.77-5.8Q327.52-5.05 329.85-5.05 332.17-5.05 333.67-6.15 335.17-7.25 335.17-9.3L335.17-9.3Q335.17-10.25 335.02-10.88 334.87-11.5 334.1-12.23 333.32-12.95 331.87-13.4L331.87-13.4 326.72-14.9Q318.87-17.15 318.87-24.9L318.87-24.9Q318.87-29.45 322.17-32.18 325.47-34.9 330.8-34.9 336.12-34.9 341.22-32.5L341.22-32.5Q341.22-32.2 341.22-31.35 341.22-30.5 340.87-28.45 340.52-26.4 339.87-25.1L339.87-25.1 335.12-25.1Q334.27-26.3 334.12-29.05Z" opacity="1" transform="matrix(1,0,0,1,0,0)" fill="#332885" class="wordmark-text-0" data-fill-palette-color="primary" id="text-0"></path></svg></g></svg></g></svg></g></svg></g><g><svg viewBox="0 0 130.58299566392148 130.58299566392148" height="130.58299566392148" width="130.58299566392148"><g><svg></svg></g><g id="icon-0"><svg viewBox="0 0 130.58299566392148 130.58299566392148" height="130.58299566392148" width="130.58299566392148"><g><path d="M0 65.291c0-36.059 29.232-65.291 65.291-65.291 36.059 0 65.291 29.232 65.292 65.291 0 36.059-29.232 65.291-65.291 65.292-36.059 0-65.291-29.232-65.292-65.291zM65.291 125.747c33.388 0 60.455-27.067 60.456-60.456 0-33.388-27.067-60.455-60.456-60.455-33.388 0-60.455 27.067-60.455 60.455 0 33.388 27.067 60.455 60.456 60.456z" data-fill-palette-color="accent" fill="#332885" stroke="transparent"></path><ellipse rx="64.63858285364113" ry="64.63858285364113" cx="65.29149783196074" cy="65.29149783196074" fill="#332885" stroke="transparent" stroke-width="0" fill-opacity="1" data-fill-palette-color="accent"></ellipse></g><g transform="matrix(1,0,0,1,27.507428209902663,35.17835002457289)"><svg viewBox="0 0 75.56813924411615 60.22629561477569" height="60.22629561477569" width="75.56813924411615"><g><svg xmlns="http://www.w3.org/2000/svg" xmlns:xlink="http://www.w3.org/1999/xlink" version="1.1" x="0" y="0" viewBox="0 10.152 100 79.698" enable-background="new 0 0 100 100" xml:space="preserve" height="60.22629561477569" width="75.56813924411615" class="icon-cg-0" data-fill-palette-color="quaternary" id="cg-0"><g fill="#ffffff" data-fill-palette-color="quaternary"><g fill="#ffffff" data-fill-palette-color="quaternary"><path d="M84.107 72.352H15.893L0 89.85h100L84.107 72.352zM33.171 82.354H12.717l2.18-2.513h18.999L33.171 82.354zM39.353 82.354l0.728-2.513h19.838l0.728 2.513H39.353zM66.104 79.842h19.002l2.177 2.514H66.827L66.104 79.842z" fill="#ffffff" data-fill-palette-color="quaternary"></path><g fill="#ffffff" data-fill-palette-color="quaternary"><path d="M51.166 18.255c-0.031 0-0.063 0.001-0.094 0.001-0.028 0-0.061-0.001-0.092-0.001H51.166z" fill="#ffffff" data-fill-palette-color="quaternary"></path><path d="M50.447 10.152c-11.112 0-20.121 9.009-20.121 20.122 0 8.734 5.573 16.146 13.349 18.93l6.771 18.431 6.777-18.431c7.771-2.785 13.346-10.196 13.346-18.93C70.568 19.161 61.559 10.152 50.447 10.152zM58.036 29.938v9.056h-6.451v-5.413h-2.913v5.413h-6.456v-9.056h-2.499l10.411-10.613 3.744 3.818v-1.947h2.915v4.92l3.749 3.822H58.036z" fill="#ffffff" data-fill-palette-color="quaternary"></path></g></g></g></svg></g></svg></g></svg></g></svg></g></svg></g><defs></defs></svg><rect width="395.52" height="93.66313986238326" fill="none" stroke="none" visibility="hidden"></rect></g></svg></g></svg>